<?xml version="1.0" encoding="UTF-8"?>
<!DOCTYPE svg PUBLIC "-//W3C//DTD SVG 1.1//EN" "http://www.w3.org/Graphics/SVG/1.1/DTD/svg11.dtd">
<svg xmlns="http://www.w3.org/2000/svg" version="1.1" width="5000px" height="2500px" style="shape-rendering:geometricPrecision; text-rendering:geometricPrecision; image-rendering:optimizeQuality; fill-rule:evenodd; clip-rule:evenodd" xmlns:xlink="http://www.w3.org/1999/xlink">
<g><path style="opacity:1" fill="#fe0000" d="M -0.5,-0.5 C 416.167,-0.5 832.833,-0.5 1249.5,-0.5C 1249.5,277.167 1249.5,554.833 1249.5,832.5C 1249.5,1110.5 1249.5,1388.5 1249.5,1666.5C 1249.5,1944.17 1249.5,2221.83 1249.5,2499.5C 832.833,2499.5 416.167,2499.5 -0.5,2499.5C -0.5,1666.17 -0.5,832.833 -0.5,-0.5 Z"/></g>
<g><path style="opacity:1" fill="#00732e" d="M 1249.5,-0.5 C 2499.5,-0.5 3749.5,-0.5 4999.5,-0.5C 4999.5,277.167 4999.5,554.833 4999.5,832.5C 3749.5,832.5 2499.5,832.5 1249.5,832.5C 1249.5,554.833 1249.5,277.167 1249.5,-0.5 Z"/></g>
<g><path style="opacity:1" fill="#fefefe" d="M 1249.5,832.5 C 2499.5,832.5 3749.5,832.5 4999.5,832.5C 4999.5,1110.5 4999.5,1388.5 4999.5,1666.5C 3749.5,1666.5 2499.5,1666.5 1249.5,1666.5C 1249.5,1388.5 1249.5,1110.5 1249.5,832.5 Z"/></g>
<g><path style="opacity:1" fill="#000000" d="M 1249.5,1666.5 C 2499.5,1666.5 3749.5,1666.5 4999.5,1666.5C 4999.5,1944.17 4999.5,2221.83 4999.5,2499.5C 3749.5,2499.5 2499.5,2499.5 1249.5,2499.5C 1249.5,2221.83 1249.5,1944.17 1249.5,1666.5 Z"/></g>
</svg>
