<svg width="55" height="55" viewBox="0 0 55 55" fill="none" xmlns="http://www.w3.org/2000/svg">
<path d="M43.5815 20.0019H41.7775C41.1619 20.0019 40.6918 19.6927 40.4648 19.1606L37.6477 11.6927C37.38 10.9833 36.6927 10.6016 35.9186 10.5103C33.8365 10.2637 31.1297 9.60849 30.145 9.60849C28.9319 9.60849 28.1854 9.97004 26.4126 9.97004C24.6397 9.97004 23.7065 7.8009 23.0533 7.16822C22.4001 6.53555 19.2276 7.89125 17.3614 7.89125C15.4951 7.89125 13.4423 9.06617 13.4423 10.6026C13.4423 12.139 11.6694 13.1332 9.7099 15.0311C7.75038 16.929 10.3164 21.4931 11.7627 22.8939C13.209 24.2948 15.1218 24.6111 17.3613 23.7073C19.6007 22.8035 20.3939 23.2102 21.4669 24.2495C22.54 25.2889 22.5866 26.7802 23.893 28.0454C25.1994 29.3107 24.5462 34.0104 24.5462 36.0891C24.5462 38.1678 26.3191 40.7887 27.7187 42.1444C29.1184 43.5001 29.305 43.0482 31.4512 42.1444C33.5973 41.2406 35.2768 36.9024 37.2364 35.0046C39.1959 33.1066 38.8226 30.3049 38.8226 28.6781C38.8226 27.0513 42.4617 23.8881 44.3279 22.0805C46.1942 20.273 43.5815 20.0019 43.5815 20.0019Z" stroke="#6D8494" stroke-width="2"/>
<path d="M44.3685 35.1076C44.9544 35.3471 45.1232 35.9118 44.7259 36.716C44.3287 37.5202 45.7786 39.0062 44.3685 40.2474C42.9583 41.4886 42.5809 40.9816 41.7468 40.2474C40.9126 39.5131 40.8133 39.0062 41.2701 38.6041C41.7269 38.202 41.6872 36.7684 42.2632 36.2614C42.8391 35.7544 43.2562 34.653 44.3685 35.1076Z" stroke="#F58220" stroke-width="2"/>
<path d="M29.1 43.9999C28.5 43.9999 27.8 43.6999 27 42.8999C25.8 41.6999 23.5 38.7999 23.5 36.0999C23.5 35.5999 23.5 34.9999 23.6 34.2999C23.7 32.6999 23.9 29.3999 23.2 28.6999C22.4 27.8999 22 27.0999 21.6 26.2999C21.3 25.6999 21.1 25.1999 20.7 24.8999C19.9 24.1999 19.6 23.7999 17.7 24.5999C15.1 25.5999 12.8 25.2999 11 23.5999C9.8 22.3999 8 19.3999 8 16.8999C8 15.7999 8.4 14.8999 9 14.2999C9.5 13.7999 10 13.2999 10.5 12.8999C11.7 11.7999 12.4 11.1999 12.4 10.5999C12.4 8.39989 15 6.89989 17.3 6.89989C18 6.89989 19 6.69989 19.9 6.39989C21.7 5.99989 22.9 5.69989 23.7 6.39989C24 6.69989 24.2 6.99989 24.4 7.29989C25 7.99989 25.6 8.99989 26.4 8.99989C27.3 8.99989 27.9 8.89989 28.5 8.79989C29 8.69989 29.5 8.59989 30.2 8.59989C30.8 8.59989 31.8 8.79989 33.1 8.99989C34.1 9.19989 35.2 9.39989 36.1 9.49989C37.3 9.59989 38.3 10.2999 38.6 11.2999L41.4 18.7999C41.4 18.8999 41.5 18.9999 41.8 18.9999H43.7C44 18.9999 45.5 19.1999 45.9 20.3999C46.2 21.1999 45.9 21.9999 45 22.7999C44.7 23.0999 44.4 23.3999 44.1 23.6999C42.8 24.8999 39.8 27.7999 39.8 28.6999C39.8 28.8999 39.8 29.0999 39.8 29.3999C39.8 31.1999 39.9 33.7999 37.9 35.7999C37.2 36.4999 36.4 37.5999 35.7 38.7999C34.5 40.5999 33.3 42.4999 31.8 43.1999C31.5 43.2999 31.2 43.4999 30.9 43.5999C30.3 43.7999 29.7 43.9999 29.1 43.9999ZM19.4 22.1999C20.5 22.1999 21.3 22.6999 22.2 23.4999C22.8 24.0999 23.2 24.7999 23.5 25.4999C23.8 26.0999 24.1 26.6999 24.6 27.2999C25.8 28.4999 25.8 31.0999 25.6 34.3999C25.6 34.9999 25.5 35.5999 25.5 36.0999C25.5 37.6999 27 40.0999 28.4 41.3999C29.1 42.0999 29.1 42.0999 30.2 41.5999C30.5 41.4999 30.8 41.3999 31.1 41.1999C32.1 40.7999 33.2 39.0999 34.1 37.5999C34.9 36.3999 35.7 35.0999 36.6 34.2999C38 32.9999 37.9 30.9999 37.9 29.3999C37.9 29.0999 37.9 28.8999 37.9 28.6999C37.9 26.9999 40 24.8999 42.8 22.1999C43.1 21.8999 43.4 21.5999 43.7 21.3999C43.8 21.2999 43.9 21.1999 43.9 21.0999C43.8 21.0999 43.6 20.9999 43.5 20.9999H41.8C40.8 20.9999 40 20.4999 39.6 19.5999L36.7 11.9999C36.5 11.5999 36 11.4999 35.8 11.4999C34.8 11.3999 33.7 11.1999 32.7 10.9999C31.7 10.7999 30.6 10.5999 30.2 10.5999C29.7 10.5999 29.3 10.6999 28.9 10.6999C28.3 10.7999 27.6 10.8999 26.5 10.8999C24.7 10.8999 23.5 9.29989 22.9 8.39989C22.8 8.19989 22.7 8.09989 22.6 7.89989C22.2 7.89989 21.2 8.09989 20.6 8.29989C19.5 8.59989 18.5 8.79989 17.5 8.79989C16.1 8.79989 14.6 9.69989 14.6 10.4999C14.6 12.0999 13.4 13.0999 12 14.2999C11.6 14.6999 11.1 15.0999 10.6 15.5999C10.1 15.9999 10 16.3999 10 16.8999C10 18.5999 11.5 21.1999 12.5 22.0999C13.7 23.1999 15.2 23.3999 17 22.6999C18 22.3999 18.7 22.1999 19.4 22.1999Z" fill="#6D8494"/>
<path d="M43 41.9999C42.3 41.9999 41.8 41.5999 41.3 41.0999L41.1 40.9999C40.6 40.5999 40 39.8999 40 39.0999C40 38.7999 40.1 38.2999 40.6 37.7999C40.6 37.7999 40.7 37.4999 40.7 37.2999C40.8 36.6999 41 35.9999 41.6 35.4999C41.7 35.3999 41.8 35.2999 41.9 35.1999C42.3 34.6999 43.2 33.5999 44.7 34.1999C45.2 34.3999 45.6 34.7999 45.8 35.2999C45.9 35.6999 46 36.2999 45.6 37.0999C45.6 37.1999 45.7 37.3999 45.7 37.5999C45.9 38.3999 46.3 39.7999 45 40.9999C44.2 41.6999 43.5 41.9999 43 41.9999ZM42.1 39.1999C42.2 39.2999 42.3 39.3999 42.4 39.4999L42.6 39.5999C42.8 39.6999 43 39.8999 43.1 39.9999C43.1 39.9999 43.3 39.8999 43.8 39.4999C44.2 39.1999 44.2 38.8999 43.9 38.0999C43.8 37.5999 43.6 36.8999 43.9 36.2999C44 36.1999 44 36.0999 44 35.9999H43.9C43.8 35.9999 43.6 36.2999 43.5 36.3999C43.3 36.5999 43.2 36.7999 43 36.9999C42.9 37.0999 42.8 37.4999 42.7 37.7999C42.5 38.2999 42.4 38.7999 42.1 39.1999ZM44 35.9999L44.4 35.0999L44 35.9999Z" fill="#F58220"/>
</svg>
