<svg width="55" height="55" viewBox="0 0 55 55" fill="none" xmlns="http://www.w3.org/2000/svg">
<g clip-path="url(#clip0)">
<path d="M10.8662 31.7205C9.87316 31.7205 9.87316 31.7205 9.62489 32.7135L9.12836 34.6996L8.63184 32.4653C8.63184 32.217 8.63184 31.9687 8.38357 31.9687C8.13531 31.7205 7.88704 31.7205 7.39052 31.7205C7.14225 31.7205 6.89399 31.7205 6.64572 31.9687C6.39746 32.217 6.39746 32.217 6.39746 32.9618V35.9409C6.39746 36.4375 6.39746 36.4375 6.64572 36.6857C6.64572 36.6857 6.89399 36.934 7.14225 36.934C7.39052 36.934 7.39052 36.934 7.63878 36.6857C7.88704 36.4375 7.88704 36.4375 7.88704 35.9409V33.4583L8.38357 35.9409C8.38357 36.4375 8.63184 36.4375 8.63184 36.6857C8.8801 36.6857 8.8801 36.934 9.12836 36.934C9.37663 36.934 9.37663 36.934 9.62489 36.6857C9.87316 36.4375 9.87316 36.4375 9.87316 35.9409L10.3697 33.4583V35.9409C10.3697 36.4375 10.3697 36.4375 10.6179 36.6857C10.6179 36.6857 10.8662 36.934 11.1145 36.934C11.3627 36.934 11.3627 36.934 11.611 36.6857C11.8593 36.4375 11.8593 36.4375 11.8593 35.9409V32.9618C11.8593 32.4653 11.8593 32.217 11.8593 32.217C11.611 31.7205 11.3627 31.7205 10.8662 31.7205Z" fill="#F58220"/>
<path d="M5.65245 33.9548C5.40419 33.7066 4.6594 33.4583 4.41113 33.4583C3.91461 33.21 3.41808 33.21 3.41808 32.9618C3.41808 32.7135 3.66634 32.7135 4.16287 32.7135H4.41113C4.6594 32.7135 4.6594 32.9618 4.90766 33.21C4.90766 33.21 5.15592 33.4583 5.40419 33.4583C5.65245 33.4583 5.90072 33.21 5.90072 32.9618C5.90072 32.9618 5.90072 31.7205 4.16287 31.7205C2.92155 31.7205 2.17676 32.217 2.17676 33.21C2.17676 34.4514 3.41808 34.6996 3.9146 34.6996C4.6594 34.9479 4.90766 34.9479 4.90766 35.4444C4.90766 35.6927 4.6594 35.9409 4.16287 35.9409C3.66634 35.9409 3.41808 35.6927 3.41808 35.4444C3.41808 35.1962 3.16981 34.9479 2.67329 34.9479C2.17676 34.9479 2.17676 35.1962 2.17676 35.4444C2.17676 35.9409 2.42502 36.934 4.16287 36.934C5.65245 36.934 6.14898 36.1892 6.14898 35.1962C6.39724 34.6996 6.14898 34.2031 5.65245 33.9548Z" fill="#F58220"/>
<path d="M24.2721 35.4445H22.7826V32.7136C22.7826 32.2171 22.7826 31.9688 22.5343 31.7206C22.286 31.4723 22.286 31.4723 22.0378 31.4723C21.7895 31.4723 21.5412 31.7206 21.5412 31.7206C21.293 31.9688 21.293 32.2171 21.293 32.7136V35.4445C21.293 35.941 21.293 36.1893 21.5412 36.4376C21.7895 36.6858 21.7895 36.6858 22.5343 36.6858H24.2721C24.5204 36.6858 24.7687 36.6858 25.0169 36.4376C25.0169 36.4376 25.2652 36.1893 25.2652 35.941C25.2652 35.6928 25.2652 35.6928 25.0169 35.4445C24.7687 35.4445 24.5204 35.4445 24.2721 35.4445Z" fill="#F58220"/>
<path d="M14.0933 34.6997L14.5898 33.2101L15.0864 34.6997H14.0933ZM15.5829 32.7136C15.3346 32.2171 15.3346 31.9688 15.0864 31.7206C14.8381 31.7206 14.5898 31.4723 14.5898 31.4723C14.3416 31.4723 14.0933 31.4723 14.0933 31.7206C13.8451 31.9688 13.8451 32.2171 13.5968 32.7136L12.6037 35.4445C12.3555 35.6928 12.3555 35.941 12.3555 36.1893C12.3555 36.4376 12.6037 36.6858 13.1003 36.6858C13.5968 36.6858 13.5968 36.4376 13.8451 35.941V35.6928H15.5829V35.941C15.8312 36.4376 15.8312 36.6858 16.3277 36.6858C16.8242 36.6858 17.0725 36.4376 17.0725 35.941C17.0725 35.6928 17.0725 35.6928 16.8242 35.4445L15.5829 32.7136Z" fill="#F58220"/>
<path d="M20.0514 35.4445H18.5618V32.7136C18.5618 32.2171 18.5618 31.9688 18.3136 31.7206C18.0653 31.4723 18.0653 31.4723 17.8171 31.4723C17.5688 31.4723 17.3205 31.7206 17.3205 31.7206C17.0723 31.9688 17.0723 32.2171 17.0723 32.7136V35.4445C17.0723 35.941 17.0723 36.1893 17.3205 36.4376C17.5688 36.6858 17.5688 36.6858 18.3136 36.6858H20.0514C20.2997 36.6858 20.548 36.6858 20.7962 36.4376C20.7962 36.4376 21.0445 36.1893 21.0445 35.941C21.0445 35.6928 21.0445 35.6928 20.7962 35.4445C20.7962 35.4445 20.548 35.4445 20.0514 35.4445Z" fill="#F58220"/>
<path d="M10.8662 26.2588C9.87316 26.2588 9.87316 26.2588 9.62489 27.2518L9.12836 29.238L8.63184 27.0036C8.63184 26.7553 8.63184 26.5071 8.38357 26.5071C8.13531 26.2588 7.88704 26.2588 7.39052 26.2588C7.14225 26.2588 6.89399 26.2588 6.64572 26.5071C6.39746 26.7553 6.39746 26.7553 6.39746 27.5001V30.4793C6.39746 30.9758 6.39746 30.9758 6.64572 31.2241C6.64572 31.2241 6.89399 31.4723 7.14225 31.4723C7.39052 31.4723 7.39052 31.4723 7.63878 31.2241C7.88704 30.9758 7.88704 30.9758 7.88704 30.4793V27.9966L8.38357 30.4793C8.38357 30.9758 8.63184 30.9758 8.63184 31.2241C8.8801 31.2241 8.8801 31.4723 9.12836 31.4723C9.37663 31.4723 9.37663 31.4723 9.62489 31.2241C9.87316 30.9758 9.87316 30.9758 9.87316 30.4793L10.3697 27.9966V30.4793C10.3697 30.9758 10.3697 30.9758 10.6179 31.2241C10.6179 31.2241 10.8662 31.4723 11.1145 31.4723C11.3627 31.4723 11.3627 31.4723 11.611 31.2241C11.8593 30.9758 11.8593 30.9758 11.8593 30.4793V27.5001C11.8593 27.0036 11.8593 26.7553 11.8593 26.7553C11.611 26.2588 11.3627 26.2588 10.8662 26.2588Z" fill="#F58220"/>
<path d="M5.65245 28.4932C5.40419 28.2449 4.6594 27.9966 4.41113 27.9966C3.91461 27.7484 3.41808 27.7484 3.41808 27.5001C3.41808 27.2518 3.66634 27.2518 4.16287 27.2518H4.41113C4.6594 27.2518 4.6594 27.5001 4.90766 27.7484C4.90766 27.7484 5.15592 27.9966 5.40419 27.9966C5.65245 27.9966 5.90072 27.7484 5.90072 27.5001C5.90072 27.5001 5.90072 26.2588 4.16287 26.2588C2.92155 26.2588 2.17676 26.7553 2.17676 27.7484C2.17676 28.9897 3.41808 29.238 3.9146 29.238C4.6594 29.4862 4.90766 29.4862 4.90766 29.9827C4.90766 30.231 4.6594 30.4793 4.16287 30.4793C3.66634 30.4793 3.41808 30.231 3.41808 29.9827C3.41808 29.7345 3.16981 29.4862 2.67329 29.4862C2.17676 29.4862 2.17676 29.7345 2.17676 29.9827C2.17676 30.4793 2.42502 31.4723 4.16287 31.4723C5.65245 31.4723 6.14898 30.7275 6.14898 29.7345C6.39724 28.9897 6.14898 28.7414 5.65245 28.4932Z" fill="#F58220"/>
<path d="M24.2721 29.9827H22.7826V27.2518C22.7826 26.7553 22.7826 26.507 22.5343 26.2588C22.286 26.0105 22.286 26.0105 22.0378 26.0105C21.7895 26.0105 21.5412 26.2588 21.5412 26.2588C21.293 26.507 21.293 26.7553 21.293 27.2518V29.9827C21.293 30.4793 21.293 30.7275 21.5412 30.9758C21.7895 31.224 21.7895 31.224 22.5343 31.224H24.2721C24.5204 31.224 24.7687 31.224 25.0169 30.9758C25.0169 30.9758 25.2652 30.7275 25.2652 30.4793C25.2652 30.231 25.2652 30.231 25.0169 29.9827C24.7687 29.9827 24.5204 29.9827 24.2721 29.9827Z" fill="#F58220"/>
<path d="M20.0514 29.9827H18.5618V27.2518C18.5618 26.7553 18.5618 26.507 18.3136 26.2588C18.0653 26.0105 18.0653 26.0105 17.8171 26.0105C17.5688 26.0105 17.3205 26.2588 17.3205 26.2588C17.0723 26.507 17.0723 26.7553 17.0723 27.2518V29.9827C17.0723 30.4793 17.0723 30.7275 17.3205 30.9758C17.5688 31.224 17.5688 31.224 18.3136 31.224H20.0514C20.2997 31.224 20.548 31.224 20.7962 30.9758C20.7962 30.9758 21.0445 30.7275 21.0445 30.4793C21.0445 30.231 21.0445 30.231 20.7962 29.9827C20.7962 29.9827 20.548 29.9827 20.0514 29.9827Z" fill="#F58220"/>
<path d="M14.0935 28.9897L14.5901 27.5001L15.0866 28.9897H14.0935ZM15.5831 27.2518C15.3349 26.7553 15.3349 26.507 15.0866 26.2588C14.8383 26.2588 14.5901 26.0105 14.5901 26.0105C14.3418 26.0105 14.0935 26.0105 14.0935 26.2588C13.8453 26.507 13.8453 26.7553 13.597 27.2518L12.3557 29.9827C12.1074 30.231 12.1074 30.4793 12.1074 30.7275C12.1074 30.9758 12.3557 31.224 12.8522 31.224C13.3487 31.224 13.3487 30.9758 13.597 30.4793V30.231H15.3349V30.4793C15.5831 30.9758 15.5831 31.224 16.0796 31.224C16.5762 31.224 16.8244 30.9758 16.8244 30.4793C16.8244 30.231 16.8244 30.231 16.5762 29.9827L15.5831 27.2518Z" fill="#F58220"/>
<path d="M21.2926 20.3003V22.5347C21.2926 23.5277 21.2926 24.0243 21.7892 24.5208C21.7892 25.0173 22.2857 25.0173 22.534 25.0173C23.0305 25.0173 23.2788 24.7691 23.527 24.5208C24.0235 24.0243 24.0235 23.5277 24.0235 22.5347V20.3003L26.2579 16.8246C27.0027 15.8316 27.0027 15.335 27.0027 15.0868C27.0027 14.5903 26.5062 13.8455 25.7614 13.8455C25.0166 13.8455 24.7683 14.342 24.0235 15.5833L22.534 17.8177L21.2926 15.5833C20.5479 14.5903 20.2996 14.0937 19.5548 14.0937C18.81 14.0937 18.3135 14.5903 18.3135 15.335C18.3135 15.8316 18.3135 16.0798 19.0583 17.0729L21.2926 20.3003Z" fill="#6D8494"/>
<path d="M4.90788 16.3281H5.90093C6.89399 16.3281 7.14225 16.3281 7.39051 16.5764C7.63878 16.8247 7.88704 17.0729 7.88704 17.5694C7.88704 18.066 7.63878 18.5625 7.14225 18.5625C6.64572 18.8108 6.1492 18.8108 5.65267 18.8108H4.90788V16.3281ZM3.41829 25.0174C3.91482 25.0174 4.16309 24.7691 4.41135 24.5208C4.90788 24.0243 4.90788 23.5278 4.90788 22.5347V21.0451H6.39746C6.89399 21.0451 8.13531 21.0451 8.8801 20.5486C9.62489 20.0521 10.6179 19.3073 10.6179 17.5694C10.6179 16.5764 10.3697 15.5833 9.62489 15.0868C8.8801 14.342 7.88704 14.0938 6.39746 14.0938H4.41135C3.17003 14.0938 2.92177 14.0938 2.42524 14.5903C1.92871 15.0868 1.92871 15.3351 1.92871 16.5764V22.783C1.92871 23.776 1.92871 24.2726 2.42524 24.7691C2.6735 25.0174 2.92177 25.0174 3.41829 25.0174Z" fill="#6D8494"/>
<path d="M13.3492 20.5486L14.5905 17.0729L15.8318 20.5486H13.3492ZM16.5766 23.2795C17.0731 24.2726 17.3214 25.0174 18.3145 25.0174C19.0592 25.0174 19.804 24.2726 19.804 23.776C19.804 23.5278 19.804 23.0312 19.5558 22.5347L16.8249 16.5764C16.3283 15.3351 16.3283 14.8385 15.8318 14.342C15.3353 14.0937 15.087 14.0938 14.5905 14.0938C14.094 14.0938 13.8457 14.342 13.3492 14.5903C12.8526 14.8385 12.6044 15.3351 12.1079 16.5764L9.87348 22.2865C9.62522 23.0312 9.37695 23.2795 9.37695 23.776C9.62522 24.5208 10.1217 25.0174 10.8665 25.0174C11.8596 25.0174 12.1079 24.2726 12.3561 23.2795L12.6044 22.783H16.5766V23.2795Z" fill="#6D8494"/>
<path d="M25.5133 26.7553C25.0168 26.7553 24.7686 27.0035 24.7686 27.5001C24.7686 27.9966 25.0168 28.2449 25.5133 28.2449C25.7616 28.2449 26.5064 28.2449 27.4995 29.4862C28.7408 30.9758 30.4786 30.9758 31.2234 30.9758C31.4717 30.9758 31.4717 30.9758 31.7199 30.9758C32.2165 30.9758 32.4647 30.4792 32.4647 30.231C32.4647 29.7344 31.9682 29.4862 31.7199 29.4862C31.7199 29.4862 29.9821 29.7344 28.989 28.4931C27.4995 26.7553 26.0099 26.7553 25.5133 26.7553ZM49.3467 28.9896C49.3467 30.7275 48.1054 31.9688 46.3675 31.9688C45.6227 31.9688 44.8779 31.7206 44.3814 31.224C44.6297 30.9758 44.8779 30.9758 45.1262 30.7275C46.6158 29.2379 45.871 27.5001 45.3745 26.507C45.6227 26.507 46.1192 26.2587 46.3675 26.2587C47.8571 26.2587 49.3467 27.5001 49.3467 28.9896ZM43.6366 35.6928C45.1262 35.6928 46.3675 36.9341 46.3675 38.1754C46.3675 39.4167 45.1262 40.6581 43.6366 40.6581C42.147 40.6581 40.9057 39.4167 40.9057 38.1754C40.9057 36.9341 42.147 35.6928 43.6366 35.6928ZM42.3953 31.4723C42.147 33.2101 40.9057 34.4515 39.1679 34.4515C37.43 34.4515 35.6922 32.9619 35.6922 31.224C35.6922 29.9827 36.437 28.7414 37.6783 28.2449L40.1609 30.4792C40.6574 30.9758 41.4022 31.4723 42.3953 31.4723ZM54.5602 29.4862C54.5602 28.4931 53.8154 27.5001 53.8154 27.5001C53.8154 27.5001 45.6227 19.0591 43.8849 17.073C40.9057 13.8456 37.6783 13.5973 36.6852 13.5973C36.437 13.5973 29.7338 13.5973 29.7338 13.5973C29.2373 13.5973 28.989 14.0938 28.989 14.3421C28.989 14.8386 29.4856 15.0869 29.7338 15.0869C29.7338 15.0869 36.6852 15.0869 37.1817 15.0869C38.4231 15.0869 40.4092 15.8317 42.8918 18.066C44.6297 19.8039 52.8224 28.4931 52.8224 28.4931C52.8224 28.7414 53.0706 28.7414 53.0706 28.9896C53.0706 29.4862 52.5741 29.7344 52.3258 29.7344C52.0776 29.7344 51.8293 29.7344 51.5811 29.4862L51.0845 28.9896V28.7414C51.0845 26.2587 49.0984 24.2726 46.6158 24.0244L43.6366 20.7969C43.3883 20.5487 42.8918 20.5487 42.3953 20.7969C42.147 21.0452 42.147 21.5417 42.3953 22.0383L44.6297 24.5209C44.3814 24.5209 44.3814 24.7692 44.1331 24.7692L38.1748 18.5626C37.9265 18.3143 37.43 18.3143 36.9335 18.5626C36.6852 18.8108 36.6852 19.3074 36.9335 19.8039C36.9335 19.8039 43.8849 26.7553 44.1331 26.7553C44.3814 27.0035 44.6297 27.5001 44.6297 27.9966C44.6297 28.9896 43.8849 29.7344 42.8918 29.7344C42.6436 29.7344 42.3953 29.7344 42.147 29.4862C41.8988 29.4862 37.43 25.2657 37.43 25.2657C37.1817 25.0174 36.9335 25.0174 36.437 25.0174C36.1887 25.0174 32.713 26.507 29.4856 22.5348C29.2373 22.2865 28.7408 22.0383 28.2443 22.5348C27.996 22.7831 27.7477 23.2796 28.2443 23.7761C31.4717 27.5001 34.9474 27.2518 36.437 26.7553C35.1956 27.7483 34.2026 29.2379 34.2026 30.9758C34.2026 33.7067 36.437 35.941 39.1679 35.941C39.4161 35.941 39.6644 35.941 39.9127 35.941C39.6644 36.4376 39.4161 37.1824 39.4161 37.9272C39.4161 40.1615 41.4022 42.1476 43.6366 42.1476C46.1192 42.1476 47.8571 40.1615 47.8571 37.9272C47.8571 35.6928 45.871 33.7067 43.6366 33.7067C43.3883 33.7067 43.3883 33.7067 43.1401 33.7067C43.3883 33.4584 43.6366 32.9619 43.6366 32.7136C44.3814 33.2101 45.1262 33.4584 46.1192 33.4584C47.8571 33.4584 49.3467 32.4653 50.3397 30.9758C50.588 31.224 51.0845 31.4723 51.5811 31.4723H51.8293C52.3258 31.4723 52.8224 31.224 53.3189 30.9758C54.312 30.7275 54.5602 29.9827 54.5602 29.4862Z" fill="#6D8494"/>
</g>
<defs>
<clipPath id="clip0">
<rect width="55" height="55" fill="white"/>
</clipPath>
</defs>
</svg>
