<svg width="42" height="43" viewBox="0 0 42 43" fill="none" xmlns="http://www.w3.org/2000/svg">
<g clip-path="url(#clip0)">
<path d="M31.6962 12.3702C31.3358 11.9777 30.8234 11.7524 30.2904 11.7524H29.3106L29.4271 9.9648L29.5718 7.74537C29.6836 6.03206 29.0985 4.39849 27.9246 3.14555C26.7508 1.8926 25.1587 1.20264 23.4419 1.20264H18.5573C16.8403 1.20264 15.2484 1.8926 14.0745 3.14555C12.9006 4.39849 12.3157 6.03198 12.4273 7.74537L12.6444 11.0743L12.6887 11.7524H11.625C11.0921 11.7524 10.5797 11.9776 10.2193 12.3702C9.85882 12.7628 9.67819 13.2926 9.72372 13.8236L10.0424 17.5369C10.1082 18.3045 10.6104 18.9247 11.2946 19.169V22.6289C11.2946 23.091 11.6692 23.4655 12.1313 23.4655C12.5933 23.4655 12.9679 23.091 12.9679 22.6289V19.2822H13.1927C13.4949 21.7963 14.9724 23.9966 17.2096 25.2271C18.3964 25.8799 19.6978 26.2062 20.9997 26.2062C22.3014 26.2062 23.6035 25.8798 24.7899 25.2271C25.9264 24.6021 26.8663 23.7262 27.5565 22.6866C28.1321 22.6275 28.6664 22.4682 29.1564 22.2062C31.5742 20.9132 31.8627 17.6704 31.8738 17.533C31.8738 17.5329 31.8738 17.5328 31.8738 17.5327L32.1917 13.8236C32.2373 13.2926 32.0566 12.7628 31.6962 12.3702ZM11.9436 17.6089C11.8207 17.6089 11.72 17.5165 11.7095 17.394L11.3912 13.6807C11.3839 13.5956 11.4203 13.5364 11.4522 13.5017C11.484 13.467 11.5399 13.4256 11.6252 13.4256H12.7979L13.0708 17.6089H11.9436ZM14.0974 7.63643C14.0161 6.3898 14.4417 5.20125 15.2958 4.28955C16.1498 3.37794 17.3082 2.87591 18.5575 2.87591H23.4421C23.5505 2.87591 23.6579 2.88108 23.7648 2.88854L22.4687 6.34468C22.2592 6.69282 20.3581 9.55293 14.2596 10.123L14.0974 7.63643ZM27.1782 18.7387C27.1257 19.5444 26.9204 20.3147 26.5843 21.0167C25.8665 20.9377 25.0476 20.6723 24.1326 20.2223C24.1629 20.0809 24.1791 19.9344 24.1791 19.7841C24.1791 18.6308 23.2408 17.6925 22.0875 17.6925C20.9341 17.6925 19.9958 18.6308 19.9958 19.7841C19.9958 20.9375 20.9341 21.8757 22.0875 21.8757C22.4694 21.8757 22.8275 21.7723 23.136 21.5928C23.9948 22.0351 24.8036 22.3474 25.5598 22.5276C25.1119 23.0134 24.5825 23.4315 23.9836 23.761C22.1153 24.7887 19.8844 24.7887 18.016 23.761C16.154 22.7368 14.9597 20.8594 14.8214 18.7388L14.3684 11.7924C19.0808 11.3602 21.6509 9.63766 22.9173 8.40113C23.2559 8.78946 23.7397 9.14712 24.3647 9.46991C25.0401 9.81879 26.1641 10.1856 27.7114 10.5625L27.1782 18.7387ZM22.5057 19.7842C22.5057 20.0149 22.3181 20.2026 22.0874 20.2026C21.8567 20.2026 21.669 20.0149 21.669 19.7842C21.669 19.5535 21.8567 19.3658 22.0874 19.3658C22.3181 19.3658 22.5057 19.5535 22.5057 19.7842ZM27.9021 7.63635L27.8219 8.86632C26.2715 8.47659 25.5074 8.17693 25.1327 7.98334C24.2204 7.51199 24.0145 7.12209 24.009 7.00241C24.0096 7.00077 24.01 6.99905 24.0106 6.99741C24.011 6.99626 24.0116 6.99511 24.012 6.99396L25.39 3.31945C25.8762 3.55513 26.3207 3.88088 26.7036 4.28955C27.5579 5.20117 27.9835 6.3898 27.9021 7.63635ZM28.5213 20.6403C28.6549 20.201 28.751 19.747 28.8069 19.2822H29.6653C29.4132 19.7988 29.0479 20.3072 28.5213 20.6403ZM30.2062 17.394C30.1957 17.5165 30.0951 17.6089 29.9721 17.6089H28.9287L29.2015 13.4256H30.2905C30.3758 13.4256 30.4318 13.467 30.4635 13.5017C30.4954 13.5364 30.5318 13.5955 30.5245 13.6806L30.2062 17.394Z" fill="#6D8494"/>
<path d="M41.9867 41.7307L41.1778 37.2652C40.7244 34.7627 39.5347 32.491 37.7371 30.6958C35.9606 28.9214 33.7217 27.7388 31.2624 27.2757C30.5044 27.133 29.7291 27.0606 28.9582 27.0606H26.522C26.3001 27.0606 26.0873 27.1488 25.9304 27.3057L21.0001 32.2359L16.0699 27.3056C15.913 27.1487 15.7002 27.0605 15.4783 27.0605H13.0419C12.2713 27.0605 11.4961 27.1329 10.7379 27.2756C10.7378 27.2756 10.7378 27.2756 10.7378 27.2756C8.27855 27.7387 6.03959 28.9213 4.26304 30.6957C2.46557 32.4909 1.27579 34.7626 0.822399 37.2652L0.0134067 41.7307C-0.0308081 41.9747 0.0355551 42.2257 0.194532 42.4161C0.353508 42.6064 0.588692 42.7164 0.836672 42.7164H41.1634C41.4114 42.7164 41.6466 42.6064 41.8055 42.4161C41.9646 42.2257 42.0309 41.9748 41.9867 41.7307ZM21.5918 34.0106L26.8686 28.7338H28.9584C29.0667 28.7338 29.1751 28.7355 29.2835 28.7387L21.0001 37.0221L19.7902 35.8122L21.5918 34.0106ZM13.0419 28.7338H15.1317L19.8169 33.4191L18.607 34.629L12.7169 28.7388C12.8253 28.7354 12.9337 28.7338 13.0419 28.7338ZM1.8386 41.0432L2.46901 37.5636C3.23149 33.3548 6.4805 29.9677 10.6211 29.0095L20.4085 38.7969C20.4289 38.8173 20.4502 38.8365 20.4721 38.8543C20.7788 39.1045 21.2215 39.1045 21.5282 38.8543C21.5501 38.8365 21.5713 38.8173 21.5918 38.7969L31.3792 29.0095C35.5197 29.9677 38.7687 33.3548 39.5313 37.5636L40.1617 41.0432H1.8386Z" fill="#6D8494"/>
<path d="M12.1316 24.3022C11.6695 24.3022 11.2949 24.6768 11.2949 25.1389V25.4736C11.2949 25.9357 11.6695 26.3102 12.1316 26.3102C12.5936 26.3102 12.9682 25.9357 12.9682 25.4736V25.1389C12.9683 24.6768 12.5937 24.3022 12.1316 24.3022Z" fill="#F58220"/>
</g>
<defs>
<clipPath id="clip0">
<rect width="42" height="42" fill="white" transform="translate(0 0.959473)"/>
</clipPath>
</defs>
</svg>
